<svg xmlns="http://www.w3.org/2000/svg" viewBox="0 0 1024 370">
  <title>header</title>
  <g>
    <g>
      <path d="M560.841,163.17a2.112,2.112,0,0,0-2.113-1.413,5.227,5.227,0,0,0-3.53,1.649,54.028,54.028,0,0,1-13.78,9.714c-1.55.76-3.02,1.389-4.427,1.916q.956-3.75,2.025-7.075,1.884-5.844,4.348-12.387a96.892,96.892,0,0,0,3.414-10.509q.729-3.432-.664-5.2t-4.825-1.769a18.633,18.633,0,0,0-8.3,2.467,42.454,42.454,0,0,0-10.388,8.257,81.167,81.167,0,0,0-11.127,15.014q1.43-4.717,2.759-7.936t3.312-7.507a48.7,48.7,0,0,0,3.249-7.721q.319-1.5-.424-2.038a5.372,5.372,0,0,0-2.889-.536,12.821,12.821,0,0,0-6.474,1.448,10.9,10.9,0,0,0-4.133,4.557,101.377,101.377,0,0,0-8.332,21.272c-.108.091-.216.183-.324.284a49.249,49.249,0,0,1-12.551,8.848q-6.886,3.378-11.71,3.378-7.507,0-9.14-4.933,13.314-3.109,19.753-8.419a22.209,22.209,0,0,0,8.009-12.708q1.345-6.327-1.622-10.027t-9.187-3.7a25.647,25.647,0,0,0-13.291,3.753,34.791,34.791,0,0,0-10.788,10.135,37.379,37.379,0,0,0-6.039,13.78c-.139.655-.251,1.292-.349,1.921a42.43,42.43,0,0,1-10.841,7.088,31.828,31.828,0,0,1-12.811,3q-5.469,0-7.847-1.93a4.674,4.674,0,0,1-1.74-4.933q1-4.718,8.452-9.491a104.632,104.632,0,0,1,18.1-8.955,17.975,17.975,0,0,0,5.77-3.431,10.1,10.1,0,0,0,2.748-5.362q.662-3.109-.146-4.612a2.675,2.675,0,0,0-2.522-1.5,11.256,11.256,0,0,0-2.719.429q-1.647.429-2.205.536a20.788,20.788,0,0,1-4.258.858q-3.111,0-7.6-.322t-6.182-.429q-8.1-.748-13.032-.751a4.863,4.863,0,0,0-3.8,1.984,10.374,10.374,0,0,0-2.2,4.558,6.454,6.454,0,0,0,.333,4.236,3.082,3.082,0,0,0,3.239,1.662l17.679-.428q-11.688,5.042-18.534,10.509t-8.351,12.548a12.182,12.182,0,0,0,1.029,8.525,13.926,13.926,0,0,0,6.928,6.006,29.781,29.781,0,0,0,12.187,2.2,41.974,41.974,0,0,0,17.582-3.753,48.477,48.477,0,0,0,11.519-7.347,14.484,14.484,0,0,0,2.239,3.915q4.92,6.113,16.182,6.113a36.085,36.085,0,0,0,16.362-4.075,61.26,61.26,0,0,0,9.076-5.51,21.282,21.282,0,0,0,.085,5.295q.748,4.291,4.825,4.29a7.488,7.488,0,0,0,5.256-1.769q1.929-1.77,4.182-6.81a93.435,93.435,0,0,1,6.88-12.441,77.061,77.061,0,0,1,7.165-9.491q3.282-3.591,4.678-3.592,1.179,0,.815,1.716a114.947,114.947,0,0,1-3.612,10.939,121.488,121.488,0,0,0-4.51,14.156q-.776,3.647.446,5.469t4.76,1.823a11.464,11.464,0,0,0,3.247-.422,41.257,41.257,0,0,0,12.575-4.054,58.152,58.152,0,0,0,14.382-9.773,13.476,13.476,0,0,0,3.789-7.3A6.743,6.743,0,0,0,560.841,163.17Zm-95.916,1.2a26.146,26.146,0,0,1,5.1-11.153q3.716-4.609,7.683-4.611a3.176,3.176,0,0,1,2.795,1.233,4.058,4.058,0,0,1,.43,3.271q-.843,3.969-5.128,6.971a30.687,30.687,0,0,1-10.931,4.5Z" style="fill: #e85d64"/>
      <path d="M766.367,153.516c-11.216,7.122-19.448,18.715-32.376,23.872a32.44,32.44,0,0,1,4.933-7.09c4.649-5.547,9.46-11,12.215-17.826,3.45-8.549-1.774-15.45-10.969-14.606a20.3,20.3,0,0,0-9.9,4.134c-2.31,1.643-4.484,3.477-7.108,5.53-.074-1.4-.049-2.248-.184-3.075a23.576,23.576,0,0,0-.613-2.373c-4.673-2.582-6.279-2.367-8.717,1.462a19.023,19.023,0,0,0-2.99,6.338c-1.475,7.893-6.633,13-12.51,17.692-4.327,3.458-8.435,7.26-14.169,8.959-1-3.694.359-6.519,1.5-9.323Q697.172,138.592,708.934,110a32.047,32.047,0,0,0,1.854-5.071,5.164,5.164,0,0,0-2.082-5.749c-2.186-1.518-4.4-1.323-6.635-.076-2.035,1.135-3.026,3.023-3.833,5.077q-12.792,32.559-25.572,65.121c-1.861,4.764-6.7,7.752-12.652,7.163-.164-6.851,2.747-12.863,5.192-19,1.67-4.193,3.521-8.341,4.791-12.656a5.208,5.208,0,0,0-3.306-6.63c-2.862-1.136-5,.31-6.313,2.741a64.014,64.014,0,0,0-3.228,7.431c-3.209,8.329-7.072,16.281-13.424,22.721-2.783,2.822-5.86,5.333-10.327,4.628-1.476-2.647-.569-5.065.02-7.482,1.865-7.655,6-14.306,9.4-21.283,1.549-3.179,2.469-6.417-1.5-8.357-3.672-1.8-6.979-.423-8.77,3.026a165.043,165.043,0,0,0-9.406,20.978c-.085.073-.169.143-.253.222a54.062,54.062,0,0,1-13.78,9.714c-.509.249-1,.476-1.5.7,2.5-8.271,5.177-16.488,8.351-24.549a34.418,34.418,0,0,0,2.513-11.621c.091-3.154-.576-5.932-4.126-6.665-3.3-.683-5.68,1.022-6.956,3.921a64.206,64.206,0,0,0-3.265,9.191c-3.531,13.178-12.668,22.064-22.909,30.069-2.694,2.106-5.727,3.958-9.889,2.379-3.934-4.6-3.2-10.3-2.2-15.755,3.26-17.814,11.107-33.571,22.485-47.563a42.771,42.771,0,0,1,7.894-7.391c6.758-4.947,11.735-3.752,16.141,3.406,1.77,2.876,3.1,6.258,6.982,6.935,5.757-2.371,7.395-7.1,4.467-12.656-6.138-11.647-18.688-15.846-30.542-10.207a39.394,39.394,0,0,0-10.711,7.33c-19.444,19.013-30.141,42.23-32.258,69.23-.613,7.821,1.632,15.331,9.19,19.565,7.223,4.046,13.714.839,19.733-3.193,4-2.683,7.674-5.865,11.836-9.088-.069,4.128-1.913,7.359-2.678,10.845-.7,3.176-1.828,6.285-2.22,9.49-.364,2.986-.731,6.693,3.131,7.74,3.74,1.015,5.368-2.242,6.892-4.9a21.064,21.064,0,0,0,1.709-4.552q1.317-4.479,2.609-8.968a43.87,43.87,0,0,0,6.629-2.687,69.5,69.5,0,0,0,8.749-5.179c-.63,8.181,4.951,12.522,13.708,10.974,6.727-1.19,11.789-5.151,16.711-10.44,2.2,12.853,6.314,13.668,21.487,4.923,2.93,5.31,7.353,6.815,13.175,5.123,5.255-1.527,9.328-5.061,14.781-8.6-3.311,7.114-6.145,13.107-8.894,19.14-2.171,4.765-4.654,9.439-5.657,14.631-.523,2.708-.62,5.659,2.559,6.992a6.792,6.792,0,0,0,7.938-1.8,18.518,18.518,0,0,0,3.861-7.086c4.216-11.94,8.854-23.707,14.206-35.191,3.779-8.109,8.388-15.641,15.078-21.68,2.912-2.628,6.073-5.089,10.564-4.492.527,3.649-1.97,5.569-3.621,7.775-4.329,5.788-9.566,10.9-13.137,17.249-4.318,7.679-.646,13.777,8.186,13.775a21.829,21.829,0,0,0,10.867-2.978c10.373-5.866,18.432-14.548,26.949-22.609C771.552,160.63,770.664,156.484,766.367,153.516Z" style="fill: #e8000c"/>
    </g>
    <g>
      <path d="M381.519,133.729l-.375-4.66-4.761-.367a73.743,73.743,0,0,0-13.411.164,80.188,80.188,0,0,0-4.928-18.534l-1.76-4.434-4.088,1.3a58.854,58.854,0,0,0-14.486,6.877,73.569,73.569,0,0,0-16.3-21.724L317.782,89l-3.633,3.352a73.565,73.565,0,0,0-16.3,21.724,58.872,58.872,0,0,0-14.486-6.877l-4.088-1.3-1.76,4.434a80.138,80.138,0,0,0-4.928,18.534,73.743,73.743,0,0,0-13.411-.164l-4.761.367-.376,4.66c-2.591,32.141,16.64,57.726,45.517,64.846h-34.88l53.1,18.367,53.1-18.367H336C364.88,191.455,384.111,165.869,381.519,133.729Zm-52,19.365a22.837,22.837,0,0,1,2.831.525,4.565,4.565,0,0,1,1.415.587c.047.033.093.066.138.1a.232.232,0,0,1,.025.142c-.077.547-3.953,31.776-3.953,31.776.254-.206-.439,1.062-.3,1.01L329,188.307l-1.874,2.947-.4,6.319-.064,1H308.191l-.108-1.325-.48-5.885-2.646-4.028c.165.062-.226-.2-.338-1.151l-.053-.468c-.447-3.9-3.54-30.911-3.579-31.211a.352.352,0,0,1,0-.155.364.364,0,0,1,.142-.158c1.267-.908,3.42-1.007,4.977-1.194,1.586-.189,3.183-.31,4.779-.4,3.432-.187,6.876-.217,10.312-.117l1.788-6.2,8.759-8.278c.553-.5,2.64,1.168,2.176,1.639l-8.213,7.788-1.424,5.186C326.037,152.719,327.788,152.859,329.523,153.094Z" style="fill: #e85d64"/>
      <polygon points="370.883 198.575 264.681 198.575 317.782 216.942 370.883 198.575" style="fill: #e85d64"/>
      <g>
        <path d="M381.519,133.729l-.375-4.66-4.761-.367a73.743,73.743,0,0,0-13.411.164c4.137,29.754-9.85,57.576-35.913,68.568l-.34.139-.168,2.627C360.577,196.784,384.384,169.262,381.519,133.729Z" style="fill: #e85d64"/>
        <path d="M272.592,128.866a73.743,73.743,0,0,0-13.411-.164l-4.761.367-.376,4.66c-2.845,35.291,20.619,62.68,54.274,66.4l-.235-2.876C282.292,186.137,268.477,158.458,272.592,128.866Z" style="fill: #e85d64"/>
        <path d="M362.972,128.866a80.188,80.188,0,0,0-4.928-18.534l-1.76-4.434-4.088,1.3a58.854,58.854,0,0,0-14.486,6.877,69.186,69.186,0,0,1,6.224,19.7A65.34,65.34,0,0,1,362.972,128.866Z" style="fill: #e85d64"/>
        <path d="M329,188.307l-1.874,2.947-.4,6.319.34-.139c26.063-10.992,40.05-38.814,35.913-68.568a65.34,65.34,0,0,0-19.038,4.911A69.311,69.311,0,0,1,329,188.307Z" style="fill: #e82e37"/>
        <path d="M297.854,114.076a58.872,58.872,0,0,0-14.486-6.877l-4.088-1.3-1.76,4.434a80.138,80.138,0,0,0-4.928,18.534,65.34,65.34,0,0,1,19.038,4.911A69.186,69.186,0,0,1,297.854,114.076Z" style="fill: #e85d64"/>
        <path d="M308.083,197.25l-.48-5.885-2.646-4.028c.165.062-.226-.2-.338-1.151l-.053-.468a69.139,69.139,0,0,1-12.936-51.941,65.34,65.34,0,0,0-19.038-4.911C268.477,158.458,282.292,186.137,308.083,197.25Z" style="fill: #e82e37"/>
        <path d="M317.782,136.328a58.808,58.808,0,0,1,19.928-22.252,73.569,73.569,0,0,0-16.3-21.724L317.782,89l-3.633,3.352a73.565,73.565,0,0,0-16.3,21.724A58.808,58.808,0,0,1,317.782,136.328Z" style="fill: #e85d64"/>
        <path d="M304.566,185.718c-.447-3.9-3.54-30.911-3.579-31.211a.352.352,0,0,1,0-.155.364.364,0,0,1,.142-.158c1.267-.908,3.42-1.007,4.977-1.194,1.586-.189,3.183-.31,4.779-.4,3.432-.187,6.876-.217,10.312-.117l1.788-6.2,8.759-8.278c.553-.5,2.64,1.168,2.176,1.639l-8.213,7.788-1.424,5.186c1.751.1,3.5.24,5.237.475a22.837,22.837,0,0,1,2.831.525,4.565,4.565,0,0,1,1.415.587c.047.033.093.066.138.1a.232.232,0,0,1,.025.142c-.077.547-3.953,31.776-3.953,31.776.254-.206-.439,1.062-.3,1.01L329,188.307a68.89,68.89,0,0,0,8.713-74.231,58.808,58.808,0,0,0-19.928,22.252,58.808,58.808,0,0,0-19.928-22.252,68.823,68.823,0,0,0,6.712,71.642Z" style="fill: #e8000c"/>
      </g>
    </g>
  </g>
  <g>
    <path d="M462,250.448a6.526,6.526,0,0,0-5.7,2.993q-2.047,2.992-2.048,8.253,0,10.936,8.318,10.936a17.058,17.058,0,0,0,4.873-.7,48.821,48.821,0,0,0,4.742-1.685V278.9a26.253,26.253,0,0,1-10.728,2.1q-8.578,0-13.152-4.975t-4.574-14.383a22.948,22.948,0,0,1,2.216-10.339,15.859,15.859,0,0,1,6.375-6.854,19.252,19.252,0,0,1,9.783-2.4,26.935,26.935,0,0,1,11.738,2.669l-3.135,8.059a35.618,35.618,0,0,0-4.2-1.659A14.683,14.683,0,0,0,462,250.448Z" style="fill: #e8000c"/>
    <path d="M515.02,261.487q0,9.563-4.69,14.538T496.6,281q-8.916,0-13.669-5t-4.756-14.564q0-9.459,4.73-14.447T496.647,242q9.043,0,13.708,4.95T515.02,261.487Zm-26.069,0q0,10.988,7.644,10.987a6.57,6.57,0,0,0,5.766-2.669q1.88-2.668,1.878-8.318,0-5.675-1.9-8.383a6.5,6.5,0,0,0-5.688-2.708Q488.949,250.4,488.951,261.487Z" style="fill: #e8000c"/>
    <path d="M532.1,266.7v13.786H521.86V242.6h12.413q15.444,0,15.444,11.195,0,6.582-6.427,10.184l11.039,16.507H542.721L534.687,266.7Zm0-7.7h1.918q5.363,0,5.363-4.743,0-3.912-5.259-3.913H532.1Z" style="fill: #e8000c"/>
    <path d="M580.27,280.482H557.777V242.6H580.27v8.214H568.013v5.961h11.35v8.215h-11.35v7.152H580.27Z" style="fill: #e8000c"/>
  </g>
</svg>
